<svg viewBox="0 0 800 320" xmlns="http://www.w3.org/2000/svg">
            <rect width="800" height="320" fill="#0a1020"/>
            <!-- Survey areas -->
            <ellipse cx="230" cy="170" rx="160" ry="120" fill="rgba(64,224,208,0.08)"/>
            <ellipse cx="560" cy="170" rx="150" ry="110" fill="rgba(240,192,64,0.06)"/>
            <!-- Galaxy dots -->
            <circle cx="160" cy="130" r="2" fill="#40e0d0" opacity="0.8"/>
            <circle cx="210" cy="100" r="1.5" fill="white" opacity="0.7"/>
            <circle cx="290" cy="160" r="2.5" fill="#f0c040" opacity="0.9"/>
            <circle cx="140" cy="200" r="1.5" fill="#ff6b6b" opacity="0.6"/>
            <circle cx="270" cy="240" r="2" fill="white" opacity="0.7"/>
            <circle cx="340" cy="120" r="1.8" fill="#40e0d0" opacity="0.7"/>
            <circle cx="400" cy="180" r="2.2" fill="#f0c040" opacity="0.8"/>
            <circle cx="500" cy="140" r="1.5" fill="white" opacity="0.6"/>
            <circle cx="580" cy="110" r="2" fill="#ff6b6b" opacity="0.7"/>
            <circle cx="650" cy="170" r="1.8" fill="#40e0d0" opacity="0.8"/>
            <circle cx="720" cy="230" r="1.5" fill="white" opacity="0.6"/>
            <circle cx="480" cy="250" r="2" fill="#f0c040" opacity="0.7"/>
            <!-- Scan beams -->
            <path d="M 400 160 L 100 60" stroke="#40e0d0" stroke-width="1" opacity="0.25" stroke-dasharray="3,6"/>
            <path d="M 400 160 L 700 50" stroke="#f0c040" stroke-width="1" opacity="0.25" stroke-dasharray="3,6"/>
            <!-- Roman telescope -->
            <g transform="translate(355, 100)">
                <rect x="0" y="0" width="90" height="110" rx="8" fill="#2a3a5c" stroke="#40e0d0" stroke-width="1.5"/>
                <ellipse cx="45" cy="18" rx="32" ry="13" fill="#1a2744" stroke="#e8c040" stroke-width="1.5"/>
                <ellipse cx="45" cy="18" rx="18" ry="7" fill="#0a0e1a" stroke="#40e0d0" stroke-width="1"/>
                <rect x="-35" y="35" width="30" height="55" rx="3" fill="#1a3a6e" stroke="#2e6db4" stroke-width="1"/>
                <rect x="95" y="35" width="30" height="55" rx="3" fill="#1a3a6e" stroke="#2e6db4" stroke-width="1"/>
                <path d="M 8 110 L 82 110 L 92 145 L -2 145 Z" fill="rgba(232,192,64,0.15)" stroke="#e8c040" stroke-width="0.8"/>
                <text x="45" y="70" text-anchor="middle" fill="#40e0d0" font-size="9" font-family="sans-serif">WFI</text>
                <text x="45" y="83" text-anchor="middle" fill="#f0c040" font-size="8" font-family="sans-serif">288MP</text>
            </g>
            <text x="400" y="295" text-anchor="middle" fill="#e8e8f0" font-size="15" font-family="Noto Serif SC, serif" font-weight="600">罗曼太空望远镜 · Nancy Grace Roman Space Telescope</text>
            <text x="400" y="313" text-anchor="middle" fill="#9a9ab0" font-size="11">广域巡天 · 288兆像素近红外相机 · L₂轨道</text>
        </svg>